<svg width="12" height="5" viewBox="0 0 12 5" fill="none" xmlns="http://www.w3.org/2000/svg">
<g clip-path="url(#clip0_1202_214)">
<path d="M11.357 3.832C11.4414 3.83227 11.5251 3.81585 11.6031 3.78369C11.6812 3.75153 11.7522 3.70427 11.8119 3.64461C11.8717 3.58496 11.919 3.51409 11.9513 3.43607C11.9836 3.35806 12.0001 3.27443 12 3.19V1.143C12.0003 1.05849 11.9838 0.974757 11.9516 0.896626C11.9194 0.818494 11.872 0.747505 11.8123 0.687745C11.7525 0.627984 11.6815 0.580631 11.6034 0.548411C11.5252 0.51619 11.4415 0.499739 11.357 0.500003H0.643003C0.558489 0.499739 0.474757 0.51619 0.396626 0.548411C0.318494 0.580631 0.247505 0.627984 0.187745 0.687745C0.127984 0.747505 0.0806309 0.818494 0.0484107 0.896626C0.0161904 0.974757 -0.000260978 1.05849 3.13019e-06 1.143V3.189C3.13019e-06 3.546 0.287003 3.832 0.643003 3.832H11.357Z" fill="#FF7E1B"/>
</g>
<defs>
<clipPath id="clip0_1202_214">
<rect width="12" height="4" fill="white" transform="translate(0 0.5)"/>
</clipPath>
</defs>
</svg>
